<?xml version="1.0" encoding="UTF-8"?>
<svg width="748px" height="748px" viewBox="0 0 748 748" version="1.1" xmlns="http://www.w3.org/2000/svg" xmlns:xlink="http://www.w3.org/1999/xlink">
    <!-- Generator: Sketch 40 (33762) - http://www.bohemiancoding.com/sketch -->
    <title>Group 3</title>
    <desc>Created with Sketch.</desc>
    <defs></defs>
    <g id="Page-1" stroke="none" stroke-width="1" fill="none" fill-rule="evenodd">
        <g id="Group-3">
            <rect id="Rectangle-2" fill="#FFFFFF" x="0" y="0" width="748" height="748"></rect>
            <g id="Group-2" transform="translate(180.000000, 187.000000)">
                <path d="M280.71249,73.1430839 C307.281696,96.9456859 324,131.520458 324,170 C324,241.797017 265.797017,300 194,300 C122.202983,300 64,241.797017 64,170 C64,131.520458 80.7183038,96.9456859 107.28751,73.1430839 L142.5,20.6835938 L176.945216,72 L211.054784,72 L245.5,20.6835938 L280.71249,73.1430839 Z" id="Combined-Shape" stroke="#000000" stroke-width="12"></path>
                <g id="Group" transform="translate(0.000000, 135.000000)" fill="#000000">
                    <rect id="Rectangle-3" transform="translate(194.190175, 80.500000) rotate(-17.000000) translate(-194.190175, -80.500000) " x="0.614560253" y="79" width="387.15123" height="3"></rect>
                    <rect id="Rectangle-3" transform="translate(194.190175, 64.500000) rotate(-17.000000) translate(-194.190175, -64.500000) " x="0.614560253" y="63" width="387.15123" height="3"></rect>
                    <rect id="Rectangle-3" transform="translate(194.190175, 49.500000) rotate(-17.000000) translate(-194.190175, -49.500000) " x="0.614560253" y="48" width="387.15123" height="3"></rect>
                    <rect id="Rectangle-3" transform="translate(194.190175, 33.500000) rotate(-17.000000) translate(-194.190175, -33.500000) " x="0.614560253" y="32" width="387.15123" height="3"></rect>
                    <rect id="Rectangle-3" transform="translate(194.190175, 17.500000) rotate(-17.000000) translate(-194.190175, -17.500000) " x="0.614560253" y="16" width="387.15123" height="3"></rect>
                    <rect id="Rectangle-3" transform="translate(194.190175, 1.500000) rotate(-17.000000) translate(-194.190175, -1.500000) " x="0.614560253" y="0" width="387.15123" height="3"></rect>
                </g>
                <path d="M67.0303233,359.096 C71.554261,359.096 74.235113,356.504 76.6478798,352.346 L73.3638361,347 C71.5207504,349.7 69.8787285,351.428 67.1978765,351.428 C63.1765986,351.428 60.3952146,346.028 60.3952146,339.548 L60.3952146,339.44 C60.3952146,332.96 63.2436199,327.668 67.1978765,327.668 C69.543622,327.668 71.3867078,329.288 73.1962829,331.934 L76.4803265,325.832 C74.3021343,322.376 71.654793,320 67.2313872,320 C60.0265975,320 55,328.802 55,339.548 L55,339.656 C55,350.51 60.1271294,359.096 67.0303233,359.096 L67.0303233,359.096 Z M101.432451,359.096 C108.670751,359.096 113.931923,350.294 113.931923,339.548 L113.931923,339.44 C113.931923,328.694 108.737773,320 101.499472,320 C94.261172,320 89,328.802 89,339.548 L89,339.656 C89,350.402 94.1941507,359.096 101.432451,359.096 L101.432451,359.096 Z M126,358.8 L131.16064,358.8 L131.16064,347.46 L135.081386,347.46 C140.342558,347.46 144.5649,342.924 144.5649,334.176 L144.5649,334.068 C144.5649,326.346 141.180324,321 135.584046,321 L126,321 L126,358.8 Z M166.014365,358.8 L171.175005,358.8 L171.175005,343.734 L180.18937,321 L174.325006,321 L168.628195,336.174 L163.031917,321 L157,321 L166.014365,343.896 L166.014365,358.8 Z M205.030323,359.096 C209.554261,359.096 212.235113,356.504 214.64788,352.346 L211.363836,347 C209.52075,349.7 207.878729,351.428 205.197877,351.428 C201.176599,351.428 198.395215,346.028 198.395215,339.548 L198.395215,339.44 C198.395215,332.96 201.24362,327.668 205.197877,327.668 C207.543622,327.668 209.386708,329.288 211.196283,331.934 L214.480327,325.832 C212.302134,322.376 209.654793,320 205.231387,320 C198.026597,320 193,328.802 193,339.548 L193,339.656 C193,350.51 198.127129,359.096 205.030323,359.096 L205.030323,359.096 Z M227,359.07 L232.261172,359.07 L234.405854,350.592 L244.325006,350.592 L246.469688,359.07 L251.864902,359.07 L241.811707,321 L237.053195,321 L227,359.07 Z M327,345.258 L330.11649,333 L333.232981,345.258 L327,345.258 Z M271.137768,358.8 L276.298408,358.8 L276.298408,328.668 L283.436177,328.668 L283.436177,321 L264,321 L264,328.668 L271.137768,328.668 L271.137768,358.8 Z M305.952663,358.88 C311.012771,358.88 314.5649,354.668 314.5649,347.162 L314.5649,347.054 C314.5649,340.466 311.884048,337.712 307.125536,335.714 C303.070747,334.04 302.065428,333.23 302.065428,330.746 L302.065428,330.638 C302.065428,328.802 303.104258,327.344 305.081386,327.344 C307.058514,327.344 309.102664,328.748 311.180324,331.07 L313.861176,324.806 C311.48192,321.728 308.566494,320 305.148407,320 C300.356384,320 296.938298,324.536 296.938298,331.394 L296.938298,331.502 C296.938298,339.008 299.987767,341.114 304.712769,343.058 C308.633515,344.678 309.437771,345.758 309.437771,347.864 L309.437771,347.972 C309.437771,350.186 308.164366,351.536 306.053195,351.536 C303.372343,351.536 301.16064,349.754 299.049469,346.946 L296,352.832 C298.814895,356.882 302.400534,358.88 305.952663,358.88 L305.952663,358.88 Z" id="COPYCATS" fill="#000000"></path>
            </g>
        </g>
    </g>
</svg>